<svg width="566" height="63" viewBox="0 0 566 63" fill="none" xmlns="http://www.w3.org/2000/svg">
<path d="M21.48 50.52C18.5333 50.52 15.955 49.87 13.745 48.57C11.535 47.27 9.80167 45.2983 8.545 42.655C7.33167 39.9683 6.725 36.5883 6.725 32.515C6.725 28.3983 7.31 25.0183 8.48 22.375C9.65 19.7317 11.34 17.76 13.55 16.46C15.76 15.16 18.4033 14.51 21.48 14.51C24.7733 14.51 27.72 15.2683 30.32 16.785C32.9633 18.2583 35.0433 20.3383 36.56 23.025C38.12 25.7117 38.9 28.875 38.9 32.515C38.9 36.1983 38.12 39.3833 36.56 42.07C35.0433 44.7567 32.9633 46.8367 30.32 48.31C27.72 49.7833 24.7733 50.52 21.48 50.52ZM0.81 62.61V15.03H10.495V22.18L10.3 32.58L10.95 42.915V62.61H0.81ZM19.725 42.2C21.415 42.2 22.91 41.81 24.21 41.03C25.5533 40.25 26.615 39.145 27.395 37.715C28.2183 36.2417 28.63 34.5083 28.63 32.515C28.63 30.4783 28.2183 28.745 27.395 27.315C26.615 25.885 25.5533 24.78 24.21 24C22.91 23.22 21.415 22.83 19.725 22.83C18.035 22.83 16.5183 23.22 15.175 24C13.8317 24.78 12.77 25.885 11.99 27.315C11.21 28.745 10.82 30.4783 10.82 32.515C10.82 34.5083 11.21 36.2417 11.99 37.715C12.77 39.145 13.8317 40.25 15.175 41.03C16.5183 41.81 18.035 42.2 19.725 42.2ZM62.3868 50.52C58.6602 50.52 55.3452 49.74 52.4418 48.18C49.5818 46.62 47.3068 44.4967 45.6168 41.81C43.9702 39.08 43.1468 35.9817 43.1468 32.515C43.1468 29.005 43.9702 25.9067 45.6168 23.22C47.3068 20.49 49.5818 18.3667 52.4418 16.85C55.3452 15.29 58.6602 14.51 62.3868 14.51C66.0702 14.51 69.3635 15.29 72.2668 16.85C75.1702 18.3667 77.4452 20.4683 79.0918 23.155C80.7385 25.8417 81.5618 28.9617 81.5618 32.515C81.5618 35.9817 80.7385 39.08 79.0918 41.81C77.4452 44.4967 75.1702 46.62 72.2668 48.18C69.3635 49.74 66.0702 50.52 62.3868 50.52ZM62.3868 42.2C64.0768 42.2 65.5935 41.81 66.9368 41.03C68.2802 40.25 69.3418 39.145 70.1218 37.715C70.9018 36.2417 71.2918 34.5083 71.2918 32.515C71.2918 30.4783 70.9018 28.745 70.1218 27.315C69.3418 25.885 68.2802 24.78 66.9368 24C65.5935 23.22 64.0768 22.83 62.3868 22.83C60.6968 22.83 59.1802 23.22 57.8368 24C56.4935 24.78 55.4102 25.885 54.5868 27.315C53.8068 28.745 53.4168 30.4783 53.4168 32.515C53.4168 34.5083 53.8068 36.2417 54.5868 37.715C55.4102 39.145 56.4935 40.25 57.8368 41.03C59.1802 41.81 60.6968 42.2 62.3868 42.2ZM105.176 50.52C101.406 50.52 98.0478 49.7617 95.1011 48.245C92.1545 46.685 89.8361 44.54 88.1461 41.81C86.4995 39.08 85.6761 35.9817 85.6761 32.515C85.6761 29.005 86.4995 25.9067 88.1461 23.22C89.8361 20.49 92.1545 18.3667 95.1011 16.85C98.0478 15.29 101.406 14.51 105.176 14.51C108.859 14.51 112.066 15.29 114.796 16.85C117.526 18.3667 119.541 20.555 120.841 23.415L112.976 27.64C112.066 25.9933 110.918 24.78 109.531 24C108.188 23.22 106.714 22.83 105.111 22.83C103.378 22.83 101.818 23.22 100.431 24C99.0445 24.78 97.9395 25.885 97.1161 27.315C96.3361 28.745 95.9461 30.4783 95.9461 32.515C95.9461 34.5517 96.3361 36.285 97.1161 37.715C97.9395 39.145 99.0445 40.25 100.431 41.03C101.818 41.81 103.378 42.2 105.111 42.2C106.714 42.2 108.188 41.8317 109.531 41.095C110.918 40.315 112.066 39.08 112.976 37.39L120.841 41.68C119.541 44.4967 117.526 46.685 114.796 48.245C112.066 49.7617 108.859 50.52 105.176 50.52Z" fill="#3965AD"/>
<path d="M144.358 50.78C141.498 50.78 138.898 50.3683 136.558 49.545C134.218 48.6783 132.181 47.3567 130.448 45.58C128.758 43.76 127.436 41.4417 126.483 38.625C125.573 35.8083 125.118 32.45 125.118 28.55C125.118 25.7767 125.356 23.2417 125.833 20.945C126.31 18.6483 127.025 16.5683 127.978 14.705C128.931 12.7983 130.145 11.13 131.618 9.7C133.135 8.22666 134.89 7.01333 136.883 6.06C138.92 5.06333 141.216 4.305 143.773 3.785L160.413 0.469998L161.778 9.18L147.088 12.105C146.221 12.2783 145.225 12.5167 144.098 12.82C143.015 13.08 141.91 13.4917 140.783 14.055C139.7 14.6183 138.681 15.42 137.728 16.46C136.818 17.4567 136.081 18.7783 135.518 20.425C134.955 22.0283 134.673 24.0217 134.673 26.405C134.673 27.1417 134.695 27.705 134.738 28.095C134.825 28.485 134.89 28.8967 134.933 29.33C135.02 29.7633 135.063 30.435 135.063 31.345L131.813 28.16C132.766 26.1233 133.98 24.39 135.453 22.96C136.97 21.53 138.703 20.4467 140.653 19.71C142.646 18.93 144.856 18.54 147.283 18.54C150.576 18.54 153.458 19.2117 155.928 20.555C158.441 21.855 160.391 23.6967 161.778 26.08C163.165 28.4633 163.858 31.1717 163.858 34.205C163.858 37.4983 163.035 40.4017 161.388 42.915C159.741 45.385 157.445 47.3133 154.498 48.7C151.595 50.0867 148.215 50.78 144.358 50.78ZM144.878 42.915C146.568 42.915 148.063 42.5467 149.363 41.81C150.663 41.03 151.66 40.0117 152.353 38.755C153.09 37.455 153.458 36.0033 153.458 34.4C153.458 32.84 153.09 31.4533 152.353 30.24C151.66 29.0267 150.663 28.0733 149.363 27.38C148.063 26.6867 146.546 26.34 144.813 26.34C143.123 26.34 141.606 26.6867 140.263 27.38C138.92 28.03 137.88 28.94 137.143 30.11C136.406 31.28 136.038 32.645 136.038 34.205C136.038 35.8083 136.406 37.2817 137.143 38.625C137.923 39.925 138.963 40.965 140.263 41.745C141.606 42.525 143.145 42.915 144.878 42.915ZM191.097 50V43.175L190.447 41.68V29.46C190.447 27.2933 189.775 25.6033 188.432 24.39C187.132 23.1767 185.117 22.57 182.387 22.57C180.524 22.57 178.682 22.8733 176.862 23.48C175.085 24.0433 173.569 24.8233 172.312 25.82L168.672 18.735C170.579 17.3917 172.875 16.3517 175.562 15.615C178.249 14.8783 180.979 14.51 183.752 14.51C189.082 14.51 193.22 15.7667 196.167 18.28C199.114 20.7933 200.587 24.715 200.587 30.045V50H191.097ZM180.437 50.52C177.707 50.52 175.367 50.065 173.417 49.155C171.467 48.2017 169.972 46.9233 168.932 45.32C167.892 43.7167 167.372 41.9183 167.372 39.925C167.372 37.845 167.87 36.025 168.867 34.465C169.907 32.905 171.532 31.6917 173.742 30.825C175.952 29.915 178.834 29.46 182.387 29.46H191.682V35.375H183.492C181.109 35.375 179.462 35.765 178.552 36.545C177.685 37.325 177.252 38.3 177.252 39.47C177.252 40.77 177.75 41.81 178.747 42.59C179.787 43.3267 181.195 43.695 182.972 43.695C184.662 43.695 186.179 43.305 187.522 42.525C188.865 41.7017 189.84 40.51 190.447 38.95L192.007 43.63C191.27 45.8833 189.927 47.595 187.977 48.765C186.027 49.935 183.514 50.52 180.437 50.52ZM209.396 50V15.03H219.471V28.68H234.681V15.03H244.821V50H234.681V36.935H219.471V50H209.396ZM279.292 50L267.592 33.425L275.847 28.55L291.252 50H279.292ZM254.527 50V15.03H264.667V50H254.527ZM261.677 36.74V28.615H273.897V36.74H261.677ZM276.822 33.685L267.332 32.645L279.617 15.03H290.407L276.822 33.685ZM316.836 50.52C313.89 50.52 311.311 49.87 309.101 48.57C306.891 47.27 305.158 45.2983 303.901 42.655C302.688 39.9683 302.081 36.5883 302.081 32.515C302.081 28.3983 302.666 25.0183 303.836 22.375C305.006 19.7317 306.696 17.76 308.906 16.46C311.116 15.16 313.76 14.51 316.836 14.51C320.13 14.51 323.076 15.2683 325.676 16.785C328.32 18.2583 330.4 20.3383 331.916 23.025C333.476 25.7117 334.256 28.875 334.256 32.515C334.256 36.1983 333.476 39.3833 331.916 42.07C330.4 44.7567 328.32 46.8367 325.676 48.31C323.076 49.7833 320.13 50.52 316.836 50.52ZM296.166 62.61V15.03H305.851V22.18L305.656 32.58L306.306 42.915V62.61H296.166ZM315.081 42.2C316.771 42.2 318.266 41.81 319.566 41.03C320.91 40.25 321.971 39.145 322.751 37.715C323.575 36.2417 323.986 34.5083 323.986 32.515C323.986 30.4783 323.575 28.745 322.751 27.315C321.971 25.885 320.91 24.78 319.566 24C318.266 23.22 316.771 22.83 315.081 22.83C313.391 22.83 311.875 23.22 310.531 24C309.188 24.78 308.126 25.885 307.346 27.315C306.566 28.745 306.176 30.4783 306.176 32.515C306.176 34.5083 306.566 36.2417 307.346 37.715C308.126 39.145 309.188 40.25 310.531 41.03C311.875 41.81 313.391 42.2 315.081 42.2ZM357.743 50.52C354.017 50.52 350.702 49.74 347.798 48.18C344.938 46.62 342.663 44.4967 340.973 41.81C339.327 39.08 338.503 35.9817 338.503 32.515C338.503 29.005 339.327 25.9067 340.973 23.22C342.663 20.49 344.938 18.3667 347.798 16.85C350.702 15.29 354.017 14.51 357.743 14.51C361.427 14.51 364.72 15.29 367.623 16.85C370.527 18.3667 372.802 20.4683 374.448 23.155C376.095 25.8417 376.918 28.9617 376.918 32.515C376.918 35.9817 376.095 39.08 374.448 41.81C372.802 44.4967 370.527 46.62 367.623 48.18C364.72 49.74 361.427 50.52 357.743 50.52ZM357.743 42.2C359.433 42.2 360.95 41.81 362.293 41.03C363.637 40.25 364.698 39.145 365.478 37.715C366.258 36.2417 366.648 34.5083 366.648 32.515C366.648 30.4783 366.258 28.745 365.478 27.315C364.698 25.885 363.637 24.78 362.293 24C360.95 23.22 359.433 22.83 357.743 22.83C356.053 22.83 354.537 23.22 353.193 24C351.85 24.78 350.767 25.885 349.943 27.315C349.163 28.745 348.773 30.4783 348.773 32.515C348.773 34.5083 349.163 36.2417 349.943 37.715C350.767 39.145 351.85 40.25 353.193 41.03C354.537 41.81 356.053 42.2 357.743 42.2ZM390.098 50V21.01L392.373 23.35H378.268V15.03H412.003V23.35H397.898L400.173 21.01V50H390.098ZM432.588 50.52C428.818 50.52 425.46 49.7617 422.513 48.245C419.567 46.685 417.248 44.54 415.558 41.81C413.912 39.08 413.088 35.9817 413.088 32.515C413.088 29.005 413.912 25.9067 415.558 23.22C417.248 20.49 419.567 18.3667 422.513 16.85C425.46 15.29 428.818 14.51 432.588 14.51C436.272 14.51 439.478 15.29 442.208 16.85C444.938 18.3667 446.953 20.555 448.253 23.415L440.388 27.64C439.478 25.9933 438.33 24.78 436.943 24C435.6 23.22 434.127 22.83 432.523 22.83C430.79 22.83 429.23 23.22 427.843 24C426.457 24.78 425.352 25.885 424.528 27.315C423.748 28.745 423.358 30.4783 423.358 32.515C423.358 34.5517 423.748 36.285 424.528 37.715C425.352 39.145 426.457 40.25 427.843 41.03C429.23 41.81 430.79 42.2 432.523 42.2C434.127 42.2 435.6 41.8317 436.943 41.095C438.33 40.315 439.478 39.08 440.388 37.39L448.253 41.68C446.953 44.4967 444.938 46.685 442.208 48.245C439.478 49.7617 436.272 50.52 432.588 50.52ZM461.827 50V21.01L464.102 23.35H449.997V15.03H483.732V23.35H469.627L471.902 21.01V50H461.827ZM489.137 50V15.03H507.012C511.388 15.03 514.812 15.8317 517.282 17.435C519.752 18.995 520.987 21.205 520.987 24.065C520.987 26.925 519.817 29.1783 517.477 30.825C515.18 32.4283 512.125 33.23 508.312 33.23L509.352 30.89C513.598 30.89 516.762 31.67 518.842 33.23C520.965 34.79 522.027 37.065 522.027 40.055C522.027 43.1317 520.857 45.5583 518.517 47.335C516.177 49.1117 512.602 50 507.792 50H489.137ZM498.432 43.11H506.947C508.81 43.11 510.197 42.8067 511.107 42.2C512.06 41.55 512.537 40.575 512.537 39.275C512.537 37.9317 512.103 36.9567 511.237 36.35C510.37 35.7 509.005 35.375 507.142 35.375H498.432V43.11ZM498.432 29.395H506.102C507.878 29.395 509.2 29.07 510.067 28.42C510.977 27.77 511.432 26.8383 511.432 25.625C511.432 24.3683 510.977 23.4367 510.067 22.83C509.2 22.2233 507.878 21.92 506.102 21.92H498.432V29.395ZM545.951 50.52C542.225 50.52 538.91 49.74 536.006 48.18C533.146 46.62 530.871 44.4967 529.181 41.81C527.535 39.08 526.711 35.9817 526.711 32.515C526.711 29.005 527.535 25.9067 529.181 23.22C530.871 20.49 533.146 18.3667 536.006 16.85C538.91 15.29 542.225 14.51 545.951 14.51C549.635 14.51 552.928 15.29 555.831 16.85C558.735 18.3667 561.01 20.4683 562.656 23.155C564.303 25.8417 565.126 28.9617 565.126 32.515C565.126 35.9817 564.303 39.08 562.656 41.81C561.01 44.4967 558.735 46.62 555.831 48.18C552.928 49.74 549.635 50.52 545.951 50.52ZM545.951 42.2C547.641 42.2 549.158 41.81 550.501 41.03C551.845 40.25 552.906 39.145 553.686 37.715C554.466 36.2417 554.856 34.5083 554.856 32.515C554.856 30.4783 554.466 28.745 553.686 27.315C552.906 25.885 551.845 24.78 550.501 24C549.158 23.22 547.641 22.83 545.951 22.83C544.261 22.83 542.745 23.22 541.401 24C540.058 24.78 538.975 25.885 538.151 27.315C537.371 28.745 536.981 30.4783 536.981 32.515C536.981 34.5083 537.371 36.2417 538.151 37.715C538.975 39.145 540.058 40.25 541.401 41.03C542.745 41.81 544.261 42.2 545.951 42.2Z" fill="#CD4158"/>
</svg>
